<svg width="201" height="39" viewBox="0 0 201 39" fill="none" xmlns="http://www.w3.org/2000/svg">
<path d="M31.2749 7.84308C27.4022 7.84308 21.9311 8.16711 19.1352 10.9615C17.9247 12.172 17.3202 14.1454 17.4771 16.3789C17.4975 16.674 17.6937 16.9253 17.9756 17.0184C18.256 17.1099 18.5641 17.0241 18.7559 16.7989C20.3108 14.9694 22.2435 13.5032 24.5046 12.4409C24.6964 12.3494 24.9231 12.3421 25.1295 12.4147C25.3111 12.4801 25.4535 12.6036 25.5276 12.7621C25.6816 13.0876 25.6322 13.5163 25.1207 13.7575C25.0917 13.772 25.0655 13.7909 25.0365 13.804C25.0263 13.8083 25.0147 13.8069 25.006 13.8113C19.4346 16.4299 16.6954 20.9986 15.4514 25.6966C14.5446 19.8143 12.6294 16.3514 10.8202 14.2254C9.51095 12.5282 8.22341 11.6286 7.47943 11.12C7.34136 11.0256 6.92435 10.7408 6.7514 10.5678C6.46803 10.2845 6.46803 9.82378 6.7514 9.54041C7.03477 9.25848 7.49687 9.25848 7.81218 9.57236C7.88923 9.64068 8.01272 9.72787 8.16966 9.8325L8.29902 9.91969C9.35108 10.6404 11.31 11.9788 13.0479 14.8604C13.2034 15.1176 13.5042 15.2557 13.7963 15.2005C14.0928 15.1481 14.3252 14.92 14.3834 14.625C14.7627 12.688 14.5927 9.81356 12.8649 8.08578C10.069 5.29278 4.59789 4.96875 0.726671 4.96875C0.32553 4.96868 0 5.29421 0 5.69528C0 9.56793 0.324032 15.0391 3.11846 17.835C4.28387 19.0004 6.08147 19.5236 7.86736 19.5236C9.32486 19.5236 10.7533 19.1588 11.8476 18.5267C13.3399 21.619 14.5316 26.2386 14.5316 33.3053C14.5316 33.7064 14.8571 34.0319 15.2582 34.0319C15.6592 34.0319 15.9848 33.7064 15.9848 33.3053C15.9848 29.3629 16.6605 24.6314 19.173 20.7369C20.18 21.7207 21.9137 22.3441 23.8347 22.4022C23.9306 22.4052 24.0251 22.4066 24.1195 22.4066C26.0711 22.4066 27.796 21.7948 28.8815 20.7078C31.6773 17.912 31.9999 12.4408 31.9999 8.56811C32.0015 8.16711 31.6774 7.84308 31.2749 7.84308Z" fill="#00B307"/>
<path d="M58.496 14.66C57.92 13.5507 57.12 12.7187 56.096 12.164C55.072 11.588 53.888 11.3 52.544 11.3C51.072 11.3 49.76 11.6307 48.608 12.292C47.456 12.9533 46.5493 13.892 45.888 15.108C45.248 16.324 44.928 17.732 44.928 19.332C44.928 20.932 45.248 22.3507 45.888 23.588C46.5493 24.804 47.456 25.7427 48.608 26.404C49.76 27.0653 51.072 27.396 52.544 27.396C54.528 27.396 56.1387 26.8413 57.376 25.732C58.6133 24.6227 59.3707 23.1187 59.648 21.22H51.296V18.308H63.552V21.156C63.3173 22.884 62.6987 24.4733 61.696 25.924C60.7147 27.3747 59.424 28.5373 57.824 29.412C56.2453 30.2653 54.4853 30.692 52.544 30.692C50.4533 30.692 48.544 30.212 46.816 29.252C45.088 28.2707 43.712 26.916 42.688 25.188C41.6853 23.46 41.184 21.508 41.184 19.332C41.184 17.156 41.6853 15.204 42.688 13.476C43.712 11.748 45.088 10.404 46.816 9.444C48.5653 8.46266 50.4747 7.972 52.544 7.972C54.912 7.972 57.0133 8.55866 58.848 9.732C60.704 10.884 62.048 12.5267 62.88 14.66H58.496ZM69.838 15.428C70.3713 14.532 71.0753 13.8387 71.95 13.348C72.846 12.836 73.902 12.58 75.118 12.58V16.356H74.19C72.7607 16.356 71.6727 16.7187 70.926 17.444C70.2007 18.1693 69.838 19.428 69.838 21.22V30.5H66.19V12.868H69.838V15.428ZM93.6713 21.252C93.6713 21.9133 93.6286 22.5107 93.5433 23.044H80.0713C80.1779 24.452 80.7006 25.5827 81.6393 26.436C82.5779 27.2893 83.7299 27.716 85.0953 27.716C87.0579 27.716 88.4446 26.8947 89.2553 25.252H93.1913C92.6579 26.8733 91.6873 28.2067 90.2793 29.252C88.8926 30.276 87.1646 30.788 85.0953 30.788C83.4099 30.788 81.8953 30.4147 80.5513 29.668C79.2286 28.9 78.1833 27.8333 77.4153 26.468C76.6686 25.0813 76.2953 23.4813 76.2953 21.668C76.2953 19.8547 76.6579 18.2653 77.3833 16.9C78.1299 15.5133 79.1646 14.4467 80.4873 13.7C81.8313 12.9533 83.3673 12.58 85.0953 12.58C86.7593 12.58 88.2419 12.9427 89.5433 13.668C90.8446 14.3933 91.8579 15.4173 92.5833 16.74C93.3086 18.0413 93.6713 19.5453 93.6713 21.252ZM89.8633 20.1C89.8419 18.756 89.3619 17.6787 88.4233 16.868C87.4846 16.0573 86.3219 15.652 84.9353 15.652C83.6766 15.652 82.5993 16.0573 81.7033 16.868C80.8073 17.6573 80.2739 18.7347 80.1033 20.1H89.8633ZM112.461 21.252C112.461 21.9133 112.419 22.5107 112.333 23.044H98.8612C98.9679 24.452 99.4906 25.5827 100.429 26.436C101.368 27.2893 102.52 27.716 103.885 27.716C105.848 27.716 107.235 26.8947 108.045 25.252H111.981C111.448 26.8733 110.477 28.2067 109.069 29.252C107.683 30.276 105.955 30.788 103.885 30.788C102.2 30.788 100.685 30.4147 99.3412 29.668C98.0186 28.9 96.9732 27.8333 96.2052 26.468C95.4586 25.0813 95.0852 23.4813 95.0852 21.668C95.0852 19.8547 95.4479 18.2653 96.1732 16.9C96.9199 15.5133 97.9546 14.4467 99.2772 13.7C100.621 12.9533 102.157 12.58 103.885 12.58C105.549 12.58 107.032 12.9427 108.333 13.668C109.635 14.3933 110.648 15.4173 111.373 16.74C112.099 18.0413 112.461 19.5453 112.461 21.252ZM108.653 20.1C108.632 18.756 108.152 17.6787 107.213 16.868C106.275 16.0573 105.112 15.652 103.725 15.652C102.467 15.652 101.389 16.0573 100.493 16.868C99.5972 17.6573 99.0639 18.7347 98.8932 20.1H108.653ZM123.987 12.58C125.374 12.58 126.611 12.868 127.699 13.444C128.809 14.02 129.673 14.8733 130.291 16.004C130.91 17.1347 131.219 18.5 131.219 20.1V30.5H127.603V20.644C127.603 19.0653 127.209 17.86 126.419 17.028C125.63 16.1747 124.553 15.748 123.187 15.748C121.822 15.748 120.734 16.1747 119.923 17.028C119.134 17.86 118.739 19.0653 118.739 20.644V30.5H115.091V12.868H118.739V14.884C119.337 14.1587 120.094 13.5933 121.011 13.188C121.95 12.7827 122.942 12.58 123.987 12.58ZM133.696 19.332C133.696 17.156 134.198 15.204 135.2 13.476C136.224 11.748 137.6 10.404 139.328 9.444C141.078 8.46266 142.987 7.972 145.056 7.972C147.424 7.972 149.526 8.55866 151.36 9.732C153.216 10.884 154.56 12.5267 155.392 14.66H151.008C150.432 13.4867 149.632 12.612 148.608 12.036C147.584 11.46 146.4 11.172 145.056 11.172C143.584 11.172 142.272 11.5027 141.12 12.164C139.968 12.8253 139.062 13.7747 138.4 15.012C137.76 16.2493 137.44 17.6893 137.44 19.332C137.44 20.9747 137.76 22.4147 138.4 23.652C139.062 24.8893 139.968 25.8493 141.12 26.532C142.272 27.1933 143.584 27.524 145.056 27.524C146.4 27.524 147.584 27.236 148.608 26.66C149.632 26.084 150.432 25.2093 151.008 24.036H155.392C154.56 26.1693 153.216 27.812 151.36 28.964C149.526 30.116 147.424 30.692 145.056 30.692C142.966 30.692 141.056 30.212 139.328 29.252C137.6 28.2707 136.224 26.916 135.2 25.188C134.198 23.46 133.696 21.508 133.696 19.332ZM157.486 21.604C157.486 19.8333 157.849 18.2653 158.574 16.9C159.321 15.5347 160.324 14.4787 161.582 13.732C162.862 12.964 164.27 12.58 165.806 12.58C167.193 12.58 168.398 12.8573 169.422 13.412C170.468 13.9453 171.3 14.6173 171.918 15.428V12.868H175.598V30.5H171.918V27.876C171.3 28.708 170.457 29.4013 169.39 29.956C168.324 30.5107 167.108 30.788 165.742 30.788C164.228 30.788 162.841 30.404 161.582 29.636C160.324 28.8467 159.321 27.7587 158.574 26.372C157.849 24.964 157.486 23.3747 157.486 21.604ZM171.918 21.668C171.918 20.452 171.662 19.396 171.15 18.5C170.66 17.604 170.009 16.9213 169.198 16.452C168.388 15.9827 167.513 15.748 166.574 15.748C165.636 15.748 164.761 15.9827 163.95 16.452C163.14 16.9 162.478 17.572 161.966 18.468C161.476 19.3427 161.23 20.388 161.23 21.604C161.23 22.82 161.476 23.8867 161.966 24.804C162.478 25.7213 163.14 26.4253 163.95 26.916C164.782 27.3853 165.657 27.62 166.574 27.62C167.513 27.62 168.388 27.3853 169.198 26.916C170.009 26.4467 170.66 25.764 171.15 24.868C171.662 23.9507 171.918 22.884 171.918 21.668ZM183.078 15.428C183.611 14.532 184.315 13.8387 185.19 13.348C186.086 12.836 187.142 12.58 188.358 12.58V16.356H187.43C186.001 16.356 184.913 16.7187 184.166 17.444C183.441 18.1693 183.078 19.428 183.078 21.22V30.5H179.43V12.868H183.078V15.428ZM195.007 15.844V25.604C195.007 26.2653 195.157 26.7453 195.455 27.044C195.775 27.3213 196.309 27.46 197.055 27.46H199.295V30.5H196.415C194.773 30.5 193.514 30.116 192.639 29.348C191.765 28.58 191.327 27.332 191.327 25.604V15.844H189.247V12.868H191.327V8.484H195.007V12.868H199.295V15.844H195.007Z" fill="#002603"/>
</svg>
